{"version": {"libopenshot": "0.1.9", "openshot-qt": "2.4.1-dev1"}, "tick_pixels": 100, "channels": 2, "height": 720, "clips": [{"scale_y": {"Points": [{"interpolation": 2, "co": {"Y": 1, "X": 1}}]}, "perspective_c1_x": {"Points": [{"interpolation": 2, "co": {"Y": -1, "X": 1}}]}, "crop_width": {"Points": [{"interpolation": 2, "co": {"Y": -1, "X": 1}}]}, "title": "TitleFileName-1.svg", "location_x": {"Points": [{"interpolation": 2, "co": {"Y": 0, "X": 1}}]}, "file_id": "VPDFU2661U", "shear_x": {"Points": [{"interpolation": 2, "co": {"Y": 0, "X": 1}}]}, "crop_height": {"Points": [{"interpolation": 2, "co": {"Y": -1, "X": 1}}]}, "crop_y": {"Points": [{"interpolation": 2, "co": {"Y": 0, "X": 1}}]}, "waveform": false, "shear_y": {"Points": [{"interpolation": 2, "co": {"Y": 0, "X": 1}}]}, "id": "HWA97ULJ05", "perspective_c4_x": {"Points": [{"interpolation": 2, "co": {"Y": -1, "X": 1}}]}, "start": 0, "perspective_c1_y": {"Points": [{"interpolation": 2, "co": {"Y": -1, "X": 1}}]}, "alpha": {"Points": [{"interpolation": 2, "co": {"Y": 1, "X": 1}}]}, "perspective_c2_y": {"Points": [{"interpolation": 2, "co": {"Y": -1, "X": 1}}]}, "perspective_c2_x": {"Points": [{"interpolation": 2, "co": {"Y": -1, "X": 1}}]}, "perspective_c3_x": {"Points": [{"interpolation": 2, "co": {"Y": -1, "X": 1}}]}, "layer": 0, "reader": {"audio_bit_rate": 0, "audio_timebase": {"num": 1, "den": 1}, "channels": 0, "channel_layout": 4, "height": 1080, "video_length": "2592000", "file_size": "8294400", "audio_stream_index": -1, "acodec": "", "vcodec": "", "has_audio": false, "sample_rate": 0, "video_timebase": {"num": 1, "den": 30}, "video_stream_index": -1, "has_video": true, "has_single_image": true, "fps": {"num": 30, "den": 1}, "interlaced_frame": false, "video_bit_rate": 0, "top_field_first": true, "duration": 86400.0, "width": 1920, "display_ratio": {"num": 16, "den": 9}, "pixel_format": -1, "type": "QtImageReader", "path": "assets/TitleFileName-1.svg", "pixel_ratio": {"num": 1, "den": 1}}, "volume": {"Points": [{"interpolation": 2, "co": {"Y": 1, "X": 1}}]}, "channel_mapping": {"Points": [{"interpolation": 2, "co": {"Y": -1, "X": 1}}]}, "perspective_c3_y": {"Points": [{"interpolation": 2, "co": {"Y": -1, "X": 1}}]}, "crop_x": {"Points": [{"interpolation": 2, "co": {"Y": 0, "X": 1}}]}, "position": 0, "scale": 1, "location_y": {"Points": [{"interpolation": 2, "co": {"Y": 0, "X": 1}}]}, "image": "../../../../../../.openshot_qt/thumbnail/VPDFU2661U.png", "perspective_c4_y": {"Points": [{"interpolation": 2, "co": {"Y": -1, "X": 1}}]}, "display": 0, "wave_color": {"blue": {"Points": [{"interpolation": 0, "handle_type": 0, "handle_right": {"Y": 0, "X": 0.5}, "co": {"Y": 255, "X": 1}, "handle_left": {"Y": 1, "X": 0.5}}]}, "green": {"Points": [{"interpolation": 0, "handle_type": 0, "handle_right": {"Y": 0, "X": 0.5}, "co": {"Y": 123, "X": 1}, "handle_left": {"Y": 1, "X": 0.5}}]}, "alpha": {"Points": [{"interpolation": 0, "handle_type": 0, "handle_right": {"Y": 0, "X": 0.5}, "co": {"Y": 255, "X": 1}, "handle_left": {"Y": 1, "X": 0.5}}]}, "red": {"Points": [{"interpolation": 0, "handle_type": 0, "handle_right": {"Y": 0, "X": 0.5}, "co": {"Y": 0, "X": 1}, "handle_left": {"Y": 1, "X": 0.5}}]}}, "end": 3.0, "scale_x": {"Points": [{"interpolation": 2, "co": {"Y": 1, "X": 1}}]}, "has_video": {"Points": [{"interpolation": 2, "co": {"Y": -1, "X": 1}}]}, "rotation": {"Points": [{"interpolation": 2, "co": {"Y": 0, "X": 1}}]}, "has_audio": {"Points": [{"interpolation": 2, "co": {"Y": -1, "X": 1}}]}, "gravity": 4, "duration": 86400.0, "time": {"Points": [{"interpolation": 2, "co": {"Y": 1, "X": 1}}]}, "channel_filter": {"Points": [{"interpolation": 2, "co": {"Y": -1, "X": 1}}]}, "effects": [], "anchor": 0}, {"scale_y": {"Points": [{"interpolation": 2, "co": {"Y": 1, "X": 1}}]}, "perspective_c1_x": {"Points": [{"interpolation": 2, "co": {"Y": -1, "X": 1}}]}, "crop_width": {"Points": [{"interpolation": 2, "co": {"Y": -1, "X": 1}}]}, "title": "TitleFileName-2.svg", "location_x": {"Points": [{"interpolation": 2, "co": {"Y": 0, "X": 1}}]}, "file_id": "YGCFV6ZCT4", "shear_x": {"Points": [{"interpolation": 2, "co": {"Y": 0, "X": 1}}]}, "crop_height": {"Points": [{"interpolation": 2, "co": {"Y": -1, "X": 1}}]}, "crop_y": {"Points": [{"interpolation": 2, "co": {"Y": 0, "X": 1}}]}, "waveform": false, "shear_y": {"Points": [{"interpolation": 2, "co": {"Y": 0, "X": 1}}]}, "id": "IU2K6R6VQ4", "perspective_c4_x": {"Points": [{"interpolation": 2, "co": {"Y": -1, "X": 1}}]}, "start": 0, "perspective_c1_y": {"Points": [{"interpolation": 2, "co": {"Y": -1, "X": 1}}]}, "alpha": {"Points": [{"interpolation": 2, "co": {"Y": 1, "X": 1}}]}, "perspective_c2_y": {"Points": [{"interpolation": 2, "co": {"Y": -1, "X": 1}}]}, "perspective_c2_x": {"Points": [{"interpolation": 2, "co": {"Y": -1, "X": 1}}]}, "perspective_c3_x": {"Points": [{"interpolation": 2, "co": {"Y": -1, "X": 1}}]}, "layer": 0, "reader": {"audio_bit_rate": 0, "audio_timebase": {"num": 1, "den": 1}, "channels": 0, "channel_layout": 4, "height": 1080, "video_length": "2592000", "file_size": "8294400", "audio_stream_index": -1, "acodec": "", "vcodec": "", "has_audio": false, "sample_rate": 0, "video_timebase": {"num": 1, "den": 30}, "video_stream_index": -1, "has_video": true, "has_single_image": true, "fps": {"num": 30, "den": 1}, "interlaced_frame": false, "video_bit_rate": 0, "top_field_first": true, "duration": 86400.0, "width": 1920, "display_ratio": {"num": 16, "den": 9}, "pixel_format": -1, "type": "QtImageReader", "path": "assets/TitleFileName-2.svg", "pixel_ratio": {"num": 1, "den": 1}}, "volume": {"Points": [{"interpolation": 2, "co": {"Y": 1, "X": 1}}]}, "channel_mapping": {"Points": [{"interpolation": 2, "co": {"Y": -1, "X": 1}}]}, "perspective_c3_y": {"Points": [{"interpolation": 2, "co": {"Y": -1, "X": 1}}]}, "crop_x": {"Points": [{"interpolation": 2, "co": {"Y": 0, "X": 1}}]}, "position": 3, "scale": 1, "location_y": {"Points": [{"interpolation": 2, "co": {"Y": 0, "X": 1}}]}, "image": "../../../../../../.openshot_qt/thumbnail/YGCFV6ZCT4.png", "perspective_c4_y": {"Points": [{"interpolation": 2, "co": {"Y": -1, "X": 1}}]}, "display": 0, "wave_color": {"blue": {"Points": [{"interpolation": 0, "handle_type": 0, "handle_right": {"Y": 0, "X": 0.5}, "co": {"Y": 255, "X": 1}, "handle_left": {"Y": 1, "X": 0.5}}]}, "green": {"Points": [{"interpolation": 0, "handle_type": 0, "handle_right": {"Y": 0, "X": 0.5}, "co": {"Y": 123, "X": 1}, "handle_left": {"Y": 1, "X": 0.5}}]}, "alpha": {"Points": [{"interpolation": 0, "handle_type": 0, "handle_right": {"Y": 0, "X": 0.5}, "co": {"Y": 255, "X": 1}, "handle_left": {"Y": 1, "X": 0.5}}]}, "red": {"Points": [{"interpolation": 0, "handle_type": 0, "handle_right": {"Y": 0, "X": 0.5}, "co": {"Y": 0, "X": 1}, "handle_left": {"Y": 1, "X": 0.5}}]}}, "end": 1.0, "scale_x": {"Points": [{"interpolation": 2, "co": {"Y": 1, "X": 1}}]}, "has_video": {"Points": [{"interpolation": 2, "co": {"Y": -1, "X": 1}}]}, "rotation": {"Points": [{"interpolation": 2, "co": {"Y": 0, "X": 1}}]}, "has_audio": {"Points": [{"interpolation": 2, "co": {"Y": -1, "X": 1}}]}, "gravity": 4, "duration": 86400.0, "time": {"Points": [{"interpolation": 2, "co": {"Y": 1, "X": 1}}]}, "channel_filter": {"Points": [{"interpolation": 2, "co": {"Y": -1, "X": 1}}]}, "effects": [], "anchor": 0}, {"scale_y": {"Points": [{"interpolation": 2, "co": {"Y": 1, "X": 1}}]}, "perspective_c1_x": {"Points": [{"interpolation": 2, "co": {"Y": -1, "X": 1}}]}, "crop_width": {"Points": [{"interpolation": 2, "co": {"Y": -1, "X": 1}}]}, "title": "TitleFileName-3.svg", "location_x": {"Points": [{"interpolation": 2, "co": {"Y": 0, "X": 1}}]}, "file_id": "OY2GW8EJIO", "shear_x": {"Points": [{"interpolation": 2, "co": {"Y": 0, "X": 1}}]}, "crop_height": {"Points": [{"interpolation": 2, "co": {"Y": -1, "X": 1}}]}, "crop_y": {"Points": [{"interpolation": 2, "co": {"Y": 0, "X": 1}}]}, "waveform": false, "shear_y": {"Points": [{"interpolation": 2, "co": {"Y": 0, "X": 1}}]}, "id": "OBUWUR8VBF", "perspective_c4_x": {"Points": [{"interpolation": 2, "co": {"Y": -1, "X": 1}}]}, "start": 0, "perspective_c1_y": {"Points": [{"interpolation": 2, "co": {"Y": -1, "X": 1}}]}, "alpha": {"Points": [{"interpolation": 2, "co": {"Y": 1, "X": 1}}]}, "perspective_c2_y": {"Points": [{"interpolation": 2, "co": {"Y": -1, "X": 1}}]}, "perspective_c2_x": {"Points": [{"interpolation": 2, "co": {"Y": -1, "X": 1}}]}, "perspective_c3_x": {"Points": [{"interpolation": 2, "co": {"Y": -1, "X": 1}}]}, "layer": 0, "reader": {"audio_bit_rate": 0, "audio_timebase": {"num": 1, "den": 1}, "channels": 0, "channel_layout": 4, "height": 1080, "video_length": "2592000", "file_size": "8294400", "audio_stream_index": -1, "acodec": "", "vcodec": "", "has_audio": false, "sample_rate": 0, "video_timebase": {"num": 1, "den": 30}, "video_stream_index": -1, "has_video": true, "has_single_image": true, "fps": {"num": 30, "den": 1}, "interlaced_frame": false, "video_bit_rate": 0, "top_field_first": true, "duration": 86400.0, "width": 1920, "display_ratio": {"num": 16, "den": 9}, "pixel_format": -1, "type": "QtImageReader", "path": "assets/TitleFileName-3.svg", "pixel_ratio": {"num": 1, "den": 1}}, "volume": {"Points": [{"interpolation": 2, "co": {"Y": 1, "X": 1}}]}, "channel_mapping": {"Points": [{"interpolation": 2, "co": {"Y": -1, "X": 1}}]}, "perspective_c3_y": {"Points": [{"interpolation": 2, "co": {"Y": -1, "X": 1}}]}, "crop_x": {"Points": [{"interpolation": 2, "co": {"Y": 0, "X": 1}}]}, "position": 4, "scale": 1, "location_y": {"Points": [{"interpolation": 2, "co": {"Y": 0, "X": 1}}]}, "image": "../../../../../../.openshot_qt/thumbnail/OY2GW8EJIO.png", "perspective_c4_y": {"Points": [{"interpolation": 2, "co": {"Y": -1, "X": 1}}]}, "display": 0, "wave_color": {"blue": {"Points": [{"interpolation": 0, "handle_type": 0, "handle_right": {"Y": 0, "X": 0.5}, "co": {"Y": 255, "X": 1}, "handle_left": {"Y": 1, "X": 0.5}}]}, "green": {"Points": [{"interpolation": 0, "handle_type": 0, "handle_right": {"Y": 0, "X": 0.5}, "co": {"Y": 123, "X": 1}, "handle_left": {"Y": 1, "X": 0.5}}]}, "alpha": {"Points": [{"interpolation": 0, "handle_type": 0, "handle_right": {"Y": 0, "X": 0.5}, "co": {"Y": 255, "X": 1}, "handle_left": {"Y": 1, "X": 0.5}}]}, "red": {"Points": [{"interpolation": 0, "handle_type": 0, "handle_right": {"Y": 0, "X": 0.5}, "co": {"Y": 0, "X": 1}, "handle_left": {"Y": 1, "X": 0.5}}]}}, "end": 1.0, "scale_x": {"Points": [{"interpolation": 2, "co": {"Y": 1, "X": 1}}]}, "has_video": {"Points": [{"interpolation": 2, "co": {"Y": -1, "X": 1}}]}, "rotation": {"Points": [{"interpolation": 2, "co": {"Y": 0, "X": 1}}]}, "has_audio": {"Points": [{"interpolation": 2, "co": {"Y": -1, "X": 1}}]}, "gravity": 4, "duration": 86400.0, "time": {"Points": [{"interpolation": 2, "co": {"Y": 1, "X": 1}}]}, "channel_filter": {"Points": [{"interpolation": 2, "co": {"Y": -1, "X": 1}}]}, "effects": [], "anchor": 0}, {"scale_y": {"Points": [{"interpolation": 2, "co": {"Y": 1, "X": 1}}]}, "perspective_c1_x": {"Points": [{"interpolation": 2, "co": {"Y": -1, "X": 1}}]}, "crop_width": {"Points": [{"interpolation": 2, "co": {"Y": -1, "X": 1}}]}, "title": "TitleFileName-4.svg", "location_x": {"Points": [{"interpolation": 2, "co": {"Y": 0, "X": 1}}]}, "file_id": "YL0ZD4DMKB", "shear_x": {"Points": [{"interpolation": 2, "co": {"Y": 0, "X": 1}}]}, "crop_height": {"Points": [{"interpolation": 2, "co": {"Y": -1, "X": 1}}]}, "crop_y": {"Points": [{"interpolation": 2, "co": {"Y": 0, "X": 1}}]}, "waveform": false, "shear_y": {"Points": [{"interpolation": 2, "co": {"Y": 0, "X": 1}}]}, "id": "1FXNWXB1VY", "perspective_c4_x": {"Points": [{"interpolation": 2, "co": {"Y": -1, "X": 1}}]}, "start": 0, "perspective_c1_y": {"Points": [{"interpolation": 2, "co": {"Y": -1, "X": 1}}]}, "alpha": {"Points": [{"interpolation": 2, "co": {"Y": 1, "X": 1}}]}, "perspective_c2_y": {"Points": [{"interpolation": 2, "co": {"Y": -1, "X": 1}}]}, "perspective_c2_x": {"Points": [{"interpolation": 2, "co": {"Y": -1, "X": 1}}]}, "perspective_c3_x": {"Points": [{"interpolation": 2, "co": {"Y": -1, "X": 1}}]}, "layer": 0, "reader": {"audio_bit_rate": 0, "audio_timebase": {"num": 1, "den": 1}, "channels": 0, "channel_layout": 4, "height": 1080, "video_length": "2592000", "file_size": "8294400", "audio_stream_index": -1, "acodec": "", "vcodec": "", "has_audio": false, "sample_rate": 0, "video_timebase": {"num": 1, "den": 30}, "video_stream_index": -1, "has_video": true, "has_single_image": true, "fps": {"num": 30, "den": 1}, "interlaced_frame": false, "video_bit_rate": 0, "top_field_first": true, "duration": 86400.0, "width": 1920, "display_ratio": {"num": 16, "den": 9}, "pixel_format": -1, "type": "QtImageReader", "path": "assets/TitleFileName-4.svg", "pixel_ratio": {"num": 1, "den": 1}}, "volume": {"Points": [{"interpolation": 2, "co": {"Y": 1, "X": 1}}]}, "channel_mapping": {"Points": [{"interpolation": 2, "co": {"Y": -1, "X": 1}}]}, "perspective_c3_y": {"Points": [{"interpolation": 2, "co": {"Y": -1, "X": 1}}]}, "crop_x": {"Points": [{"interpolation": 2, "co": {"Y": 0, "X": 1}}]}, "position": 5, "scale": 1, "location_y": {"Points": [{"interpolation": 2, "co": {"Y": 0, "X": 1}}]}, "image": "../../../../../../.openshot_qt/thumbnail/YL0ZD4DMKB.png", "perspective_c4_y": {"Points": [{"interpolation": 2, "co": {"Y": -1, "X": 1}}]}, "display": 0, "wave_color": {"blue": {"Points": [{"interpolation": 0, "handle_type": 0, "handle_right": {"Y": 0, "X": 0.5}, "co": {"Y": 255, "X": 1}, "handle_left": {"Y": 1, "X": 0.5}}]}, "green": {"Points": [{"interpolation": 0, "handle_type": 0, "handle_right": {"Y": 0, "X": 0.5}, "co": {"Y": 123, "X": 1}, "handle_left": {"Y": 1, "X": 0.5}}]}, "alpha": {"Points": [{"interpolation": 0, "handle_type": 0, "handle_right": {"Y": 0, "X": 0.5}, "co": {"Y": 255, "X": 1}, "handle_left": {"Y": 1, "X": 0.5}}]}, "red": {"Points": [{"interpolation": 0, "handle_type": 0, "handle_right": {"Y": 0, "X": 0.5}, "co": {"Y": 0, "X": 1}, "handle_left": {"Y": 1, "X": 0.5}}]}}, "end": 1.0, "scale_x": {"Points": [{"interpolation": 2, "co": {"Y": 1, "X": 1}}]}, "has_video": {"Points": [{"interpolation": 2, "co": {"Y": -1, "X": 1}}]}, "rotation": {"Points": [{"interpolation": 2, "co": {"Y": 0, "X": 1}}]}, "has_audio": {"Points": [{"interpolation": 2, "co": {"Y": -1, "X": 1}}]}, "gravity": 4, "duration": 86400.0, "time": {"Points": [{"interpolation": 2, "co": {"Y": 1, "X": 1}}]}, "channel_filter": {"Points": [{"interpolation": 2, "co": {"Y": -1, "X": 1}}]}, "effects": [], "anchor": 0}, {"scale_y": {"Points": [{"interpolation": 2, "co": {"Y": 1, "X": 1}}]}, "perspective_c1_x": {"Points": [{"interpolation": 2, "co": {"Y": -1, "X": 1}}]}, "crop_width": {"Points": [{"interpolation": 2, "co": {"Y": -1, "X": 1}}]}, "title": "case11_01.avi", "location_x": {"Points": [{"interpolation": 2, "co": {"Y": 0, "X": 1}}]}, "file_id": "PF2G64VX1K", "shear_x": {"Points": [{"interpolation": 2, "co": {"Y": 0, "X": 1}}]}, "crop_height": {"Points": [{"interpolation": 2, "co": {"Y": -1, "X": 1}}]}, "crop_y": {"Points": [{"interpolation": 2, "co": {"Y": 0, "X": 1}}]}, "waveform": false, "shear_y": {"Points": [{"interpolation": 2, "co": {"Y": 0, "X": 1}}]}, "id": "LIVODCRVLS", "perspective_c4_x": {"Points": [{"interpolation": 2, "co": {"Y": -1, "X": 1}}]}, "start": 0, "perspective_c1_y": {"Points": [{"interpolation": 2, "co": {"Y": -1, "X": 1}}]}, "alpha": {"Points": [{"interpolation": 2, "co": {"Y": 1, "X": 1}}]}, "perspective_c2_y": {"Points": [{"interpolation": 2, "co": {"Y": -1, "X": 1}}]}, "perspective_c2_x": {"Points": [{"interpolation": 2, "co": {"Y": -1, "X": 1}}]}, "perspective_c3_x": {"Points": [{"interpolation": 2, "co": {"Y": -1, "X": 1}}]}, "layer": 0, "reader": {"audio_bit_rate": 0, "audio_timebase": {"num": 1, "den": 1}, "channels": 0, "channel_layout": 4, "height": 792, "video_length": "120", "file_size": "410581362", "audio_stream_index": -1, "acodec": "", "vcodec": "rawvideo", "has_audio": false, "sample_rate": 0, "video_timebase": {"num": 1, "den": 10}, "video_stream_index": 0, "has_video": true, "has_single_image": false, "fps": {"num": 10, "den": 1}, "interlaced_frame": false, "video_bit_rate": 273720908, "top_field_first": true, "duration": 12.0, "width": 1440, "display_ratio": {"num": 20, "den": 11}, "pixel_format": 3, "type": "FFmpegReader", "path": "../case11_01.avi", "pixel_ratio": {"num": 1, "den": 1}}, "volume": {"Points": [{"interpolation": 2, "co": {"Y": 1, "X": 1}}]}, "channel_mapping": {"Points": [{"interpolation": 2, "co": {"Y": -1, "X": 1}}]}, "perspective_c3_y": {"Points": [{"interpolation": 2, "co": {"Y": -1, "X": 1}}]}, "crop_x": {"Points": [{"interpolation": 2, "co": {"Y": 0, "X": 1}}]}, "position": 6, "scale": 1, "location_y": {"Points": [{"interpolation": 2, "co": {"Y": 0, "X": 1}}]}, "image": "../../../../../../.openshot_qt/thumbnail/PF2G64VX1K.png", "perspective_c4_y": {"Points": [{"interpolation": 2, "co": {"Y": -1, "X": 1}}]}, "display": 0, "wave_color": {"blue": {"Points": [{"interpolation": 0, "handle_type": 0, "handle_right": {"Y": 0, "X": 0.5}, "co": {"Y": 255, "X": 1}, "handle_left": {"Y": 1, "X": 0.5}}]}, "green": {"Points": [{"interpolation": 0, "handle_type": 0, "handle_right": {"Y": 0, "X": 0.5}, "co": {"Y": 123, "X": 1}, "handle_left": {"Y": 1, "X": 0.5}}]}, "alpha": {"Points": [{"interpolation": 0, "handle_type": 0, "handle_right": {"Y": 0, "X": 0.5}, "co": {"Y": 255, "X": 1}, "handle_left": {"Y": 1, "X": 0.5}}]}, "red": {"Points": [{"interpolation": 0, "handle_type": 0, "handle_right": {"Y": 0, "X": 0.5}, "co": {"Y": 0, "X": 1}, "handle_left": {"Y": 1, "X": 0.5}}]}}, "end": 12, "scale_x": {"Points": [{"interpolation": 2, "co": {"Y": 1, "X": 1}}]}, "has_video": {"Points": [{"interpolation": 2, "co": {"Y": -1, "X": 1}}]}, "rotation": {"Points": [{"interpolation": 2, "co": {"Y": 0, "X": 1}}]}, "has_audio": {"Points": [{"interpolation": 2, "co": {"Y": -1, "X": 1}}]}, "gravity": 4, "duration": 12.0, "time": {"Points": [{"interpolation": 2, "co": {"Y": 1, "X": 1}}]}, "channel_filter": {"Points": [{"interpolation": 2, "co": {"Y": -1, "X": 1}}]}, "effects": [], "anchor": 0}], "history": {"redo": [], "undo": [{"type": "update", "key": ["scale"], "partial": false, "value": 9, "old_values": 10}, {"type": "update", "key": ["scale"], "partial": false, "value": 8, "old_values": 9}, {"type": "update", "key": ["scale"], "partial": false, "value": 7, "old_values": null}, {"type": "update", "key": ["scale"], "partial": false, "value": 7, "old_values": null}, {"type": "update", "key": ["scale"], "partial": false, "value": 7, "old_values": null}, {"type": "update", "key": ["scale"], "partial": false, "value": 7, "old_values": null}, {"type": "update", "key": ["clips", {"id": "OBUWUR8VBF"}], "partial": false, "value": {"end": 1.0}, "old_values": {"wave_color": {"blue": {"Points": [{"interpolation": 0, "handle_type": 0, "handle_right": {"Y": 0, "X": 0.5}, "co": {"Y": 255, "X": 1}, "handle_left": {"Y": 1, "X": 0.5}}]}, "green": {"Points": [{"interpolation": 0, "handle_type": 0, "handle_right": {"Y": 0, "X": 0.5}, "co": {"Y": 123, "X": 1}, "handle_left": {"Y": 1, "X": 0.5}}]}, "alpha": {"Points": [{"interpolation": 0, "handle_type": 0, "handle_right": {"Y": 0, "X": 0.5}, "co": {"Y": 255, "X": 1}, "handle_left": {"Y": 1, "X": 0.5}}]}, "red": {"Points": [{"interpolation": 0, "handle_type": 0, "handle_right": {"Y": 0, "X": 0.5}, "co": {"Y": 0, "X": 1}, "handle_left": {"Y": 1, "X": 0.5}}]}}, "title": "TitleFileName-3.svg", "perspective_c4_x": {"Points": [{"interpolation": 2, "co": {"Y": -1, "X": 1}}]}, "perspective_c4_y": {"Points": [{"interpolation": 2, "co": {"Y": -1, "X": 1}}]}, "perspective_c1_x": {"Points": [{"interpolation": 2, "co": {"Y": -1, "X": 1}}]}, "crop_width": {"Points": [{"interpolation": 2, "co": {"Y": -1, "X": 1}}]}, "reader": {"audio_bit_rate": 0, "audio_timebase": {"num": 1, "den": 1}, "channels": 0, "height": 1080, "video_length": "2592000", "type": "QtImageReader", "file_size": "8294400", "channel_layout": 4, "acodec": "", "vcodec": "", "has_audio": false, "sample_rate": 0, "video_timebase": {"num": 1, "den": 30}, "video_stream_index": -1, "has_video": true, "has_single_image": true, "fps": {"num": 30, "den": 1}, "interlaced_frame": false, "video_bit_rate": 0, "top_field_first": true, "duration": 86400.0, "width": 1920, "display_ratio": {"num": 16, "den": 9}, "pixel_format": -1, "pixel_ratio": {"num": 1, "den": 1}, "path": "/home/osboxes/.openshot_qt/assets/TitleFileName-3.svg", "audio_stream_index": -1}, "alpha": {"Points": [{"interpolation": 2, "co": {"Y": 1, "X": 1}}]}, "location_x": {"Points": [{"interpolation": 2, "co": {"Y": 0, "X": 1}}]}, "channel_mapping": {"Points": [{"interpolation": 2, "co": {"Y": -1, "X": 1}}]}, "perspective_c3_y": {"Points": [{"interpolation": 2, "co": {"Y": -1, "X": 1}}]}, "shear_x": {"Points": [{"interpolation": 2, "co": {"Y": 0, "X": 1}}]}, "volume": {"Points": [{"interpolation": 2, "co": {"Y": 1, "X": 1}}]}, "position": 4, "crop_height": {"Points": [{"interpolation": 2, "co": {"Y": -1, "X": 1}}]}, "scale": 1, "perspective_c3_x": {"Points": [{"interpolation": 2, "co": {"Y": -1, "X": 1}}]}, "location_y": {"Points": [{"interpolation": 2, "co": {"Y": 0, "X": 1}}]}, "crop_y": {"Points": [{"interpolation": 2, "co": {"Y": 0, "X": 1}}]}, "waveform": false, "id": "OBUWUR8VBF", "layer": 0, "image": "/home/osboxes/.openshot_qt/thumbnail/OY2GW8EJIO.png", "shear_y": {"Points": [{"interpolation": 2, "co": {"Y": 0, "X": 1}}]}, "end": 10, "scale_x": {"Points": [{"interpolation": 2, "co": {"Y": 1, "X": 1}}]}, "crop_x": {"Points": [{"interpolation": 2, "co": {"Y": 0, "X": 1}}]}, "has_video": {"Points": [{"interpolation": 2, "co": {"Y": -1, "X": 1}}]}, "rotation": {"Points": [{"interpolation": 2, "co": {"Y": 0, "X": 1}}]}, "scale_y": {"Points": [{"interpolation": 2, "co": {"Y": 1, "X": 1}}]}, "start": 0, "perspective_c1_y": {"Points": [{"interpolation": 2, "co": {"Y": -1, "X": 1}}]}, "has_audio": {"Points": [{"interpolation": 2, "co": {"Y": -1, "X": 1}}]}, "perspective_c2_y": {"Points": [{"interpolation": 2, "co": {"Y": -1, "X": 1}}]}, "gravity": 4, "perspective_c2_x": {"Points": [{"interpolation": 2, "co": {"Y": -1, "X": 1}}]}, "file_id": "OY2GW8EJIO", "duration": 86400.0, "time": {"Points": [{"interpolation": 2, "co": {"Y": 1, "X": 1}}]}, "channel_filter": {"Points": [{"interpolation": 2, "co": {"Y": -1, "X": 1}}]}, "display": 0, "effects": [], "anchor": 0}}, {"type": "insert", "key": ["clips"], "partial": false, "value": {"title": "TitleFileName-4.svg", "scale_y": {"Points": [{"interpolation": 2, "co": {"Y": 1, "X": 1}}]}, "perspective_c1_x": {"Points": [{"interpolation": 2, "co": {"Y": -1, "X": 1}}]}, "crop_width": {"Points": [{"interpolation": 2, "co": {"Y": -1, "X": 1}}]}, "reader": {"audio_bit_rate": 0, "audio_timebase": {"num": 1, "den": 1}, "channels": 0, "height": 1080, "video_length": "2592000", "pixel_ratio": {"num": 1, "den": 1}, "file_size": "8294400", "channel_layout": 4, "display_ratio": {"num": 16, "den": 9}, "vcodec": "", "video_bit_rate": 0, "sample_rate": 0, "video_timebase": {"num": 1, "den": 30}, "video_stream_index": -1, "has_video": true, "has_single_image": true, "fps": {"num": 30, "den": 1}, "interlaced_frame": false, "has_audio": false, "top_field_first": true, "duration": 86400.0, "width": 1920, "acodec": "", "pixel_format": -1, "type": "QtImageReader", "path": "/home/osboxes/github/ElmerFEM_Examples/20171213_FAT3_CAE/2.Thick/Pictures/case11/assets/TitleFileName-4.svg", "audio_stream_index": -1}, "channel_filter": {"Points": [{"interpolation": 2, "co": {"Y": -1, "X": 1}}]}, "location_x": {"Points": [{"interpolation": 2, "co": {"Y": 0, "X": 1}}]}, "channel_mapping": {"Points": [{"interpolation": 2, "co": {"Y": -1, "X": 1}}]}, "effects": [], "anchor": 0, "start": 0, "shear_x": {"Points": [{"interpolation": 2, "co": {"Y": 0, "X": 1}}]}, "volume": {"Points": [{"interpolation": 2, "co": {"Y": 1, "X": 1}}]}, "crop_height": {"Points": [{"interpolation": 2, "co": {"Y": -1, "X": 1}}]}, "scale": 1, "time": {"Points": [{"interpolation": 2, "co": {"Y": 1, "X": 1}}]}, "has_audio": {"Points": [{"interpolation": 2, "co": {"Y": -1, "X": 1}}]}, "end": 1.0, "perspective_c3_y": {"Points": [{"interpolation": 2, "co": {"Y": -1, "X": 1}}]}, "crop_y": {"Points": [{"interpolation": 2, "co": {"Y": 0, "X": 1}}]}, "waveform": false, "scale_x": {"Points": [{"interpolation": 2, "co": {"Y": 1, "X": 1}}]}, "display": 0, "image": "/home/osboxes/.openshot_qt/thumbnail/YL0ZD4DMKB.png", "shear_y": {"Points": [{"interpolation": 2, "co": {"Y": 0, "X": 1}}]}, "location_y": {"Points": [{"interpolation": 2, "co": {"Y": 0, "X": 1}}]}, "id": "1FXNWXB1VY", "crop_x": {"Points": [{"interpolation": 2, "co": {"Y": 0, "X": 1}}]}, "has_video": {"Points": [{"interpolation": 2, "co": {"Y": -1, "X": 1}}]}, "rotation": {"Points": [{"interpolation": 2, "co": {"Y": 0, "X": 1}}]}, "perspective_c4_x": {"Points": [{"interpolation": 2, "co": {"Y": -1, "X": 1}}]}, "file_id": "YL0ZD4DMKB", "perspective_c1_y": {"Points": [{"interpolation": 2, "co": {"Y": -1, "X": 1}}]}, "alpha": {"Points": [{"interpolation": 2, "co": {"Y": 1, "X": 1}}]}, "perspective_c2_y": {"Points": [{"interpolation": 2, "co": {"Y": -1, "X": 1}}]}, "gravity": 4, "perspective_c4_y": {"Points": [{"interpolation": 2, "co": {"Y": -1, "X": 1}}]}, "duration": 86400.0, "perspective_c2_x": {"Points": [{"interpolation": 2, "co": {"Y": -1, "X": 1}}]}, "position": 5, "perspective_c3_x": {"Points": [{"interpolation": 2, "co": {"Y": -1, "X": 1}}]}, "layer": 0, "wave_color": {"blue": {"Points": [{"interpolation": 0, "handle_type": 0, "handle_right": {"Y": 0, "X": 0.5}, "co": {"Y": 255, "X": 1}, "handle_left": {"Y": 1, "X": 0.5}}]}, "green": {"Points": [{"interpolation": 0, "handle_type": 0, "handle_right": {"Y": 0, "X": 0.5}, "co": {"Y": 123, "X": 1}, "handle_left": {"Y": 1, "X": 0.5}}]}, "red": {"Points": [{"interpolation": 0, "handle_type": 0, "handle_right": {"Y": 0, "X": 0.5}, "co": {"Y": 0, "X": 1}, "handle_left": {"Y": 1, "X": 0.5}}]}, "alpha": {"Points": [{"interpolation": 0, "handle_type": 0, "handle_right": {"Y": 0, "X": 0.5}, "co": {"Y": 255, "X": 1}, "handle_left": {"Y": 1, "X": 0.5}}]}}}, "old_values": [{"wave_color": {"blue": {"Points": [{"interpolation": 0, "handle_type": 0, "handle_right": {"Y": 0, "X": 0.5}, "co": {"Y": 255, "X": 1}, "handle_left": {"Y": 1, "X": 0.5}}]}, "green": {"Points": [{"interpolation": 0, "handle_type": 0, "handle_right": {"Y": 0, "X": 0.5}, "co": {"Y": 123, "X": 1}, "handle_left": {"Y": 1, "X": 0.5}}]}, "alpha": {"Points": [{"interpolation": 0, "handle_type": 0, "handle_right": {"Y": 0, "X": 0.5}, "co": {"Y": 255, "X": 1}, "handle_left": {"Y": 1, "X": 0.5}}]}, "red": {"Points": [{"interpolation": 0, "handle_type": 0, "handle_right": {"Y": 0, "X": 0.5}, "co": {"Y": 0, "X": 1}, "handle_left": {"Y": 1, "X": 0.5}}]}}, "title": "TitleFileName-1.svg", "perspective_c4_x": {"Points": [{"interpolation": 2, "co": {"Y": -1, "X": 1}}]}, "perspective_c4_y": {"Points": [{"interpolation": 2, "co": {"Y": -1, "X": 1}}]}, "perspective_c1_x": {"Points": [{"interpolation": 2, "co": {"Y": -1, "X": 1}}]}, "crop_width": {"Points": [{"interpolation": 2, "co": {"Y": -1, "X": 1}}]}, "reader": {"audio_bit_rate": 0, "audio_timebase": {"num": 1, "den": 1}, "channels": 0, "height": 1080, "video_length": "2592000", "type": "QtImageReader", "file_size": "8294400", "channel_layout": 4, "acodec": "", "vcodec": "", "has_audio": false, "sample_rate": 0, "video_timebase": {"num": 1, "den": 30}, "video_stream_index": -1, "has_video": true, "has_single_image": true, "fps": {"num": 30, "den": 1}, "interlaced_frame": false, "video_bit_rate": 0, "top_field_first": true, "duration": 86400.0, "width": 1920, "display_ratio": {"num": 16, "den": 9}, "pixel_format": -1, "pixel_ratio": {"num": 1, "den": 1}, "path": "/home/osboxes/github/ElmerFEM_Examples/20171213_FAT3_CAE/2.Thick/Pictures/case11/assets/TitleFileName-1.svg", "audio_stream_index": -1}, "alpha": {"Points": [{"interpolation": 2, "co": {"Y": 1, "X": 1}}]}, "location_x": {"Points": [{"interpolation": 2, "co": {"Y": 0, "X": 1}}]}, "channel_mapping": {"Points": [{"interpolation": 2, "co": {"Y": -1, "X": 1}}]}, "perspective_c3_y": {"Points": [{"interpolation": 2, "co": {"Y": -1, "X": 1}}]}, "shear_x": {"Points": [{"interpolation": 2, "co": {"Y": 0, "X": 1}}]}, "volume": {"Points": [{"interpolation": 2, "co": {"Y": 1, "X": 1}}]}, "position": 0, "crop_height": {"Points": [{"interpolation": 2, "co": {"Y": -1, "X": 1}}]}, "scale": 1, "perspective_c3_x": {"Points": [{"interpolation": 2, "co": {"Y": -1, "X": 1}}]}, "location_y": {"Points": [{"interpolation": 2, "co": {"Y": 0, "X": 1}}]}, "crop_y": {"Points": [{"interpolation": 2, "co": {"Y": 0, "X": 1}}]}, "waveform": false, "id": "HWA97ULJ05", "layer": 0, "image": "/home/osboxes/.openshot_qt/thumbnail/VPDFU2661U.png", "shear_y": {"Points": [{"interpolation": 2, "co": {"Y": 0, "X": 1}}]}, "end": 3.0, "scale_x": {"Points": [{"interpolation": 2, "co": {"Y": 1, "X": 1}}]}, "crop_x": {"Points": [{"interpolation": 2, "co": {"Y": 0, "X": 1}}]}, "has_video": {"Points": [{"interpolation": 2, "co": {"Y": -1, "X": 1}}]}, "rotation": {"Points": [{"interpolation": 2, "co": {"Y": 0, "X": 1}}]}, "scale_y": {"Points": [{"interpolation": 2, "co": {"Y": 1, "X": 1}}]}, "start": 0, "perspective_c1_y": {"Points": [{"interpolation": 2, "co": {"Y": -1, "X": 1}}]}, "has_audio": {"Points": [{"interpolation": 2, "co": {"Y": -1, "X": 1}}]}, "perspective_c2_y": {"Points": [{"interpolation": 2, "co": {"Y": -1, "X": 1}}]}, "gravity": 4, "perspective_c2_x": {"Points": [{"interpolation": 2, "co": {"Y": -1, "X": 1}}]}, "file_id": "VPDFU2661U", "duration": 86400.0, "time": {"Points": [{"interpolation": 2, "co": {"Y": 1, "X": 1}}]}, "channel_filter": {"Points": [{"interpolation": 2, "co": {"Y": -1, "X": 1}}]}, "display": 0, "effects": [], "anchor": 0}, {"wave_color": {"blue": {"Points": [{"interpolation": 0, "handle_type": 0, "handle_right": {"Y": 0, "X": 0.5}, "co": {"Y": 255, "X": 1}, "handle_left": {"Y": 1, "X": 0.5}}]}, "green": {"Points": [{"interpolation": 0, "handle_type": 0, "handle_right": {"Y": 0, "X": 0.5}, "co": {"Y": 123, "X": 1}, "handle_left": {"Y": 1, "X": 0.5}}]}, "alpha": {"Points": [{"interpolation": 0, "handle_type": 0, "handle_right": {"Y": 0, "X": 0.5}, "co": {"Y": 255, "X": 1}, "handle_left": {"Y": 1, "X": 0.5}}]}, "red": {"Points": [{"interpolation": 0, "handle_type": 0, "handle_right": {"Y": 0, "X": 0.5}, "co": {"Y": 0, "X": 1}, "handle_left": {"Y": 1, "X": 0.5}}]}}, "title": "TitleFileName-2.svg", "perspective_c4_x": {"Points": [{"interpolation": 2, "co": {"Y": -1, "X": 1}}]}, "perspective_c4_y": {"Points": [{"interpolation": 2, "co": {"Y": -1, "X": 1}}]}, "perspective_c1_x": {"Points": [{"interpolation": 2, "co": {"Y": -1, "X": 1}}]}, "crop_width": {"Points": [{"interpolation": 2, "co": {"Y": -1, "X": 1}}]}, "reader": {"audio_bit_rate": 0, "audio_timebase": {"num": 1, "den": 1}, "channels": 0, "height": 1080, "video_length": "2592000", "type": "QtImageReader", "file_size": "8294400", "channel_layout": 4, "acodec": "", "vcodec": "", "has_audio": false, "sample_rate": 0, "video_timebase": {"num": 1, "den": 30}, "video_stream_index": -1, "has_video": true, "has_single_image": true, "fps": {"num": 30, "den": 1}, "interlaced_frame": false, "video_bit_rate": 0, "top_field_first": true, "duration": 86400.0, "width": 1920, "display_ratio": {"num": 16, "den": 9}, "pixel_format": -1, "pixel_ratio": {"num": 1, "den": 1}, "path": "/home/osboxes/github/ElmerFEM_Examples/20171213_FAT3_CAE/2.Thick/Pictures/case11/assets/TitleFileName-2.svg", "audio_stream_index": -1}, "alpha": {"Points": [{"interpolation": 2, "co": {"Y": 1, "X": 1}}]}, "location_x": {"Points": [{"interpolation": 2, "co": {"Y": 0, "X": 1}}]}, "channel_mapping": {"Points": [{"interpolation": 2, "co": {"Y": -1, "X": 1}}]}, "perspective_c3_y": {"Points": [{"interpolation": 2, "co": {"Y": -1, "X": 1}}]}, "shear_x": {"Points": [{"interpolation": 2, "co": {"Y": 0, "X": 1}}]}, "volume": {"Points": [{"interpolation": 2, "co": {"Y": 1, "X": 1}}]}, "position": 3, "crop_height": {"Points": [{"interpolation": 2, "co": {"Y": -1, "X": 1}}]}, "scale": 1, "perspective_c3_x": {"Points": [{"interpolation": 2, "co": {"Y": -1, "X": 1}}]}, "location_y": {"Points": [{"interpolation": 2, "co": {"Y": 0, "X": 1}}]}, "crop_y": {"Points": [{"interpolation": 2, "co": {"Y": 0, "X": 1}}]}, "waveform": false, "id": "IU2K6R6VQ4", "layer": 0, "image": "/home/osboxes/.openshot_qt/thumbnail/YGCFV6ZCT4.png", "shear_y": {"Points": [{"interpolation": 2, "co": {"Y": 0, "X": 1}}]}, "end": 1.0, "scale_x": {"Points": [{"interpolation": 2, "co": {"Y": 1, "X": 1}}]}, "crop_x": {"Points": [{"interpolation": 2, "co": {"Y": 0, "X": 1}}]}, "has_video": {"Points": [{"interpolation": 2, "co": {"Y": -1, "X": 1}}]}, "rotation": {"Points": [{"interpolation": 2, "co": {"Y": 0, "X": 1}}]}, "scale_y": {"Points": [{"interpolation": 2, "co": {"Y": 1, "X": 1}}]}, "start": 0, "perspective_c1_y": {"Points": [{"interpolation": 2, "co": {"Y": -1, "X": 1}}]}, "has_audio": {"Points": [{"interpolation": 2, "co": {"Y": -1, "X": 1}}]}, "perspective_c2_y": {"Points": [{"interpolation": 2, "co": {"Y": -1, "X": 1}}]}, "gravity": 4, "perspective_c2_x": {"Points": [{"interpolation": 2, "co": {"Y": -1, "X": 1}}]}, "file_id": "YGCFV6ZCT4", "duration": 86400.0, "time": {"Points": [{"interpolation": 2, "co": {"Y": 1, "X": 1}}]}, "channel_filter": {"Points": [{"interpolation": 2, "co": {"Y": -1, "X": 1}}]}, "display": 0, "effects": [], "anchor": 0}, {"wave_color": {"blue": {"Points": [{"interpolation": 0, "handle_type": 0, "handle_right": {"Y": 0, "X": 0.5}, "co": {"Y": 255, "X": 1}, "handle_left": {"Y": 1, "X": 0.5}}]}, "green": {"Points": [{"interpolation": 0, "handle_type": 0, "handle_right": {"Y": 0, "X": 0.5}, "co": {"Y": 123, "X": 1}, "handle_left": {"Y": 1, "X": 0.5}}]}, "alpha": {"Points": [{"interpolation": 0, "handle_type": 0, "handle_right": {"Y": 0, "X": 0.5}, "co": {"Y": 255, "X": 1}, "handle_left": {"Y": 1, "X": 0.5}}]}, "red": {"Points": [{"interpolation": 0, "handle_type": 0, "handle_right": {"Y": 0, "X": 0.5}, "co": {"Y": 0, "X": 1}, "handle_left": {"Y": 1, "X": 0.5}}]}}, "title": "TitleFileName-3.svg", "perspective_c4_x": {"Points": [{"interpolation": 2, "co": {"Y": -1, "X": 1}}]}, "perspective_c4_y": {"Points": [{"interpolation": 2, "co": {"Y": -1, "X": 1}}]}, "perspective_c1_x": {"Points": [{"interpolation": 2, "co": {"Y": -1, "X": 1}}]}, "crop_width": {"Points": [{"interpolation": 2, "co": {"Y": -1, "X": 1}}]}, "reader": {"audio_bit_rate": 0, "audio_timebase": {"num": 1, "den": 1}, "channels": 0, "height": 1080, "video_length": "2592000", "type": "QtImageReader", "file_size": "8294400", "channel_layout": 4, "acodec": "", "vcodec": "", "has_audio": false, "sample_rate": 0, "video_timebase": {"num": 1, "den": 30}, "video_stream_index": -1, "has_video": true, "has_single_image": true, "fps": {"num": 30, "den": 1}, "interlaced_frame": false, "video_bit_rate": 0, "top_field_first": true, "duration": 86400.0, "width": 1920, "display_ratio": {"num": 16, "den": 9}, "pixel_format": -1, "pixel_ratio": {"num": 1, "den": 1}, "path": "/home/osboxes/.openshot_qt/assets/TitleFileName-3.svg", "audio_stream_index": -1}, "alpha": {"Points": [{"interpolation": 2, "co": {"Y": 1, "X": 1}}]}, "location_x": {"Points": [{"interpolation": 2, "co": {"Y": 0, "X": 1}}]}, "channel_mapping": {"Points": [{"interpolation": 2, "co": {"Y": -1, "X": 1}}]}, "perspective_c3_y": {"Points": [{"interpolation": 2, "co": {"Y": -1, "X": 1}}]}, "shear_x": {"Points": [{"interpolation": 2, "co": {"Y": 0, "X": 1}}]}, "volume": {"Points": [{"interpolation": 2, "co": {"Y": 1, "X": 1}}]}, "position": 4, "crop_height": {"Points": [{"interpolation": 2, "co": {"Y": -1, "X": 1}}]}, "scale": 1, "perspective_c3_x": {"Points": [{"interpolation": 2, "co": {"Y": -1, "X": 1}}]}, "location_y": {"Points": [{"interpolation": 2, "co": {"Y": 0, "X": 1}}]}, "crop_y": {"Points": [{"interpolation": 2, "co": {"Y": 0, "X": 1}}]}, "waveform": false, "id": "OBUWUR8VBF", "layer": 0, "image": "/home/osboxes/.openshot_qt/thumbnail/OY2GW8EJIO.png", "shear_y": {"Points": [{"interpolation": 2, "co": {"Y": 0, "X": 1}}]}, "end": 1.0, "scale_x": {"Points": [{"interpolation": 2, "co": {"Y": 1, "X": 1}}]}, "crop_x": {"Points": [{"interpolation": 2, "co": {"Y": 0, "X": 1}}]}, "has_video": {"Points": [{"interpolation": 2, "co": {"Y": -1, "X": 1}}]}, "rotation": {"Points": [{"interpolation": 2, "co": {"Y": 0, "X": 1}}]}, "scale_y": {"Points": [{"interpolation": 2, "co": {"Y": 1, "X": 1}}]}, "start": 0, "perspective_c1_y": {"Points": [{"interpolation": 2, "co": {"Y": -1, "X": 1}}]}, "has_audio": {"Points": [{"interpolation": 2, "co": {"Y": -1, "X": 1}}]}, "perspective_c2_y": {"Points": [{"interpolation": 2, "co": {"Y": -1, "X": 1}}]}, "gravity": 4, "perspective_c2_x": {"Points": [{"interpolation": 2, "co": {"Y": -1, "X": 1}}]}, "file_id": "OY2GW8EJIO", "duration": 86400.0, "time": {"Points": [{"interpolation": 2, "co": {"Y": 1, "X": 1}}]}, "channel_filter": {"Points": [{"interpolation": 2, "co": {"Y": -1, "X": 1}}]}, "display": 0, "effects": [], "anchor": 0}]}, {"type": "update", "key": ["clips", {"id": "1FXNWXB1VY"}], "partial": false, "value": {"position": 5, "end": 10, "id": "1FXNWXB1VY", "layer": 0, "start": 0, "image": "/home/osboxes/.openshot_qt/thumbnail/YL0ZD4DMKB.png"}, "old_values": null}, {"type": "update", "key": ["clips", {"id": "1FXNWXB1VY"}], "partial": false, "value": {"position": 5, "end": 10, "id": "1FXNWXB1VY", "layer": 0, "start": 0, "image": "/home/osboxes/.openshot_qt/thumbnail/YL0ZD4DMKB.png"}, "old_values": null}, {"type": "update", "key": ["clips", {"id": "1FXNWXB1VY"}], "partial": false, "value": {"position": 5, "end": 10, "id": "1FXNWXB1VY", "layer": 0, "start": 0, "image": "/home/osboxes/.openshot_qt/thumbnail/YL0ZD4DMKB.png"}, "old_values": null}, {"type": "update", "key": ["clips", {"id": "1FXNWXB1VY"}], "partial": false, "value": {"end": 1.0}, "old_values": {"wave_color": {"blue": {"Points": [{"interpolation": 0, "handle_type": 0, "handle_right": {"Y": 0, "X": 0.5}, "co": {"Y": 255, "X": 1}, "handle_left": {"Y": 1, "X": 0.5}}]}, "green": {"Points": [{"interpolation": 0, "handle_type": 0, "handle_right": {"Y": 0, "X": 0.5}, "co": {"Y": 123, "X": 1}, "handle_left": {"Y": 1, "X": 0.5}}]}, "alpha": {"Points": [{"interpolation": 0, "handle_type": 0, "handle_right": {"Y": 0, "X": 0.5}, "co": {"Y": 255, "X": 1}, "handle_left": {"Y": 1, "X": 0.5}}]}, "red": {"Points": [{"interpolation": 0, "handle_type": 0, "handle_right": {"Y": 0, "X": 0.5}, "co": {"Y": 0, "X": 1}, "handle_left": {"Y": 1, "X": 0.5}}]}}, "title": "TitleFileName-4.svg", "perspective_c4_x": {"Points": [{"interpolation": 2, "co": {"Y": -1, "X": 1}}]}, "perspective_c4_y": {"Points": [{"interpolation": 2, "co": {"Y": -1, "X": 1}}]}, "perspective_c1_x": {"Points": [{"interpolation": 2, "co": {"Y": -1, "X": 1}}]}, "crop_width": {"Points": [{"interpolation": 2, "co": {"Y": -1, "X": 1}}]}, "reader": {"audio_bit_rate": 0, "audio_timebase": {"num": 1, "den": 1}, "channels": 0, "height": 1080, "video_length": "2592000", "type": "QtImageReader", "file_size": "8294400", "channel_layout": 4, "acodec": "", "vcodec": "", "has_audio": false, "sample_rate": 0, "video_timebase": {"num": 1, "den": 30}, "video_stream_index": -1, "has_video": true, "has_single_image": true, "fps": {"num": 30, "den": 1}, "interlaced_frame": false, "video_bit_rate": 0, "top_field_first": true, "duration": 86400.0, "width": 1920, "display_ratio": {"num": 16, "den": 9}, "pixel_format": -1, "pixel_ratio": {"num": 1, "den": 1}, "path": "/home/osboxes/.openshot_qt/assets/TitleFileName-4.svg", "audio_stream_index": -1}, "alpha": {"Points": [{"interpolation": 2, "co": {"Y": 1, "X": 1}}]}, "location_x": {"Points": [{"interpolation": 2, "co": {"Y": 0, "X": 1}}]}, "channel_mapping": {"Points": [{"interpolation": 2, "co": {"Y": -1, "X": 1}}]}, "perspective_c3_y": {"Points": [{"interpolation": 2, "co": {"Y": -1, "X": 1}}]}, "shear_x": {"Points": [{"interpolation": 2, "co": {"Y": 0, "X": 1}}]}, "volume": {"Points": [{"interpolation": 2, "co": {"Y": 1, "X": 1}}]}, "position": 5, "crop_height": {"Points": [{"interpolation": 2, "co": {"Y": -1, "X": 1}}]}, "scale": 1, "perspective_c3_x": {"Points": [{"interpolation": 2, "co": {"Y": -1, "X": 1}}]}, "location_y": {"Points": [{"interpolation": 2, "co": {"Y": 0, "X": 1}}]}, "crop_y": {"Points": [{"interpolation": 2, "co": {"Y": 0, "X": 1}}]}, "waveform": false, "id": "1FXNWXB1VY", "layer": 0, "image": "/home/osboxes/.openshot_qt/thumbnail/YL0ZD4DMKB.png", "shear_y": {"Points": [{"interpolation": 2, "co": {"Y": 0, "X": 1}}]}, "end": 10, "scale_x": {"Points": [{"interpolation": 2, "co": {"Y": 1, "X": 1}}]}, "crop_x": {"Points": [{"interpolation": 2, "co": {"Y": 0, "X": 1}}]}, "has_video": {"Points": [{"interpolation": 2, "co": {"Y": -1, "X": 1}}]}, "rotation": {"Points": [{"interpolation": 2, "co": {"Y": 0, "X": 1}}]}, "scale_y": {"Points": [{"interpolation": 2, "co": {"Y": 1, "X": 1}}]}, "start": 0, "perspective_c1_y": {"Points": [{"interpolation": 2, "co": {"Y": -1, "X": 1}}]}, "has_audio": {"Points": [{"interpolation": 2, "co": {"Y": -1, "X": 1}}]}, "perspective_c2_y": {"Points": [{"interpolation": 2, "co": {"Y": -1, "X": 1}}]}, "gravity": 4, "perspective_c2_x": {"Points": [{"interpolation": 2, "co": {"Y": -1, "X": 1}}]}, "file_id": "YL0ZD4DMKB", "duration": 86400.0, "time": {"Points": [{"interpolation": 2, "co": {"Y": 1, "X": 1}}]}, "channel_filter": {"Points": [{"interpolation": 2, "co": {"Y": -1, "X": 1}}]}, "display": 0, "effects": [], "anchor": 0}}, {"type": "insert", "key": ["clips"], "partial": false, "value": {"title": "case11_01.avi", "scale_y": {"Points": [{"interpolation": 2, "co": {"Y": 1, "X": 1}}]}, "perspective_c1_x": {"Points": [{"interpolation": 2, "co": {"Y": -1, "X": 1}}]}, "crop_width": {"Points": [{"interpolation": 2, "co": {"Y": -1, "X": 1}}]}, "reader": {"audio_bit_rate": 0, "audio_timebase": {"num": 1, "den": 1}, "channels": 0, "height": 792, "video_length": "120", "pixel_ratio": {"num": 1, "den": 1}, "file_size": "410581362", "channel_layout": 4, "display_ratio": {"num": 20, "den": 11}, "vcodec": "rawvideo", "video_bit_rate": 273720908, "sample_rate": 0, "video_timebase": {"num": 1, "den": 10}, "video_stream_index": 0, "has_video": true, "has_single_image": false, "fps": {"num": 10, "den": 1}, "interlaced_frame": false, "has_audio": false, "top_field_first": true, "duration": 12.0, "width": 1440, "acodec": "", "pixel_format": 3, "type": "FFmpegReader", "path": "/home/osboxes/github/ElmerFEM_Examples/20171213_FAT3_CAE/2.Thick/Pictures/case11_01.avi", "audio_stream_index": -1}, "channel_filter": {"Points": [{"interpolation": 2, "co": {"Y": -1, "X": 1}}]}, "location_x": {"Points": [{"interpolation": 2, "co": {"Y": 0, "X": 1}}]}, "channel_mapping": {"Points": [{"interpolation": 2, "co": {"Y": -1, "X": 1}}]}, "effects": [], "anchor": 0, "start": 0, "shear_x": {"Points": [{"interpolation": 2, "co": {"Y": 0, "X": 1}}]}, "volume": {"Points": [{"interpolation": 2, "co": {"Y": 1, "X": 1}}]}, "crop_height": {"Points": [{"interpolation": 2, "co": {"Y": -1, "X": 1}}]}, "scale": 1, "time": {"Points": [{"interpolation": 2, "co": {"Y": 1, "X": 1}}]}, "has_audio": {"Points": [{"interpolation": 2, "co": {"Y": -1, "X": 1}}]}, "end": 12, "perspective_c3_y": {"Points": [{"interpolation": 2, "co": {"Y": -1, "X": 1}}]}, "crop_y": {"Points": [{"interpolation": 2, "co": {"Y": 0, "X": 1}}]}, "waveform": false, "scale_x": {"Points": [{"interpolation": 2, "co": {"Y": 1, "X": 1}}]}, "display": 0, "image": "/home/osboxes/.openshot_qt/thumbnail/PF2G64VX1K.png", "shear_y": {"Points": [{"interpolation": 2, "co": {"Y": 0, "X": 1}}]}, "location_y": {"Points": [{"interpolation": 2, "co": {"Y": 0, "X": 1}}]}, "id": "LIVODCRVLS", "crop_x": {"Points": [{"interpolation": 2, "co": {"Y": 0, "X": 1}}]}, "has_video": {"Points": [{"interpolation": 2, "co": {"Y": -1, "X": 1}}]}, "rotation": {"Points": [{"interpolation": 2, "co": {"Y": 0, "X": 1}}]}, "perspective_c4_x": {"Points": [{"interpolation": 2, "co": {"Y": -1, "X": 1}}]}, "file_id": "PF2G64VX1K", "perspective_c1_y": {"Points": [{"interpolation": 2, "co": {"Y": -1, "X": 1}}]}, "alpha": {"Points": [{"interpolation": 2, "co": {"Y": 1, "X": 1}}]}, "perspective_c2_y": {"Points": [{"interpolation": 2, "co": {"Y": -1, "X": 1}}]}, "gravity": 4, "perspective_c4_y": {"Points": [{"interpolation": 2, "co": {"Y": -1, "X": 1}}]}, "duration": 12.0, "perspective_c2_x": {"Points": [{"interpolation": 2, "co": {"Y": -1, "X": 1}}]}, "position": 6, "perspective_c3_x": {"Points": [{"interpolation": 2, "co": {"Y": -1, "X": 1}}]}, "layer": 0, "wave_color": {"blue": {"Points": [{"interpolation": 0, "handle_type": 0, "handle_right": {"Y": 0, "X": 0.5}, "co": {"Y": 255, "X": 1}, "handle_left": {"Y": 1, "X": 0.5}}]}, "green": {"Points": [{"interpolation": 0, "handle_type": 0, "handle_right": {"Y": 0, "X": 0.5}, "co": {"Y": 123, "X": 1}, "handle_left": {"Y": 1, "X": 0.5}}]}, "red": {"Points": [{"interpolation": 0, "handle_type": 0, "handle_right": {"Y": 0, "X": 0.5}, "co": {"Y": 0, "X": 1}, "handle_left": {"Y": 1, "X": 0.5}}]}, "alpha": {"Points": [{"interpolation": 0, "handle_type": 0, "handle_right": {"Y": 0, "X": 0.5}, "co": {"Y": 255, "X": 1}, "handle_left": {"Y": 1, "X": 0.5}}]}}}, "old_values": [{"wave_color": {"blue": {"Points": [{"interpolation": 0, "handle_type": 0, "handle_right": {"Y": 0, "X": 0.5}, "co": {"Y": 255, "X": 1}, "handle_left": {"Y": 1, "X": 0.5}}]}, "green": {"Points": [{"interpolation": 0, "handle_type": 0, "handle_right": {"Y": 0, "X": 0.5}, "co": {"Y": 123, "X": 1}, "handle_left": {"Y": 1, "X": 0.5}}]}, "alpha": {"Points": [{"interpolation": 0, "handle_type": 0, "handle_right": {"Y": 0, "X": 0.5}, "co": {"Y": 255, "X": 1}, "handle_left": {"Y": 1, "X": 0.5}}]}, "red": {"Points": [{"interpolation": 0, "handle_type": 0, "handle_right": {"Y": 0, "X": 0.5}, "co": {"Y": 0, "X": 1}, "handle_left": {"Y": 1, "X": 0.5}}]}}, "title": "TitleFileName-1.svg", "perspective_c4_x": {"Points": [{"interpolation": 2, "co": {"Y": -1, "X": 1}}]}, "perspective_c4_y": {"Points": [{"interpolation": 2, "co": {"Y": -1, "X": 1}}]}, "perspective_c1_x": {"Points": [{"interpolation": 2, "co": {"Y": -1, "X": 1}}]}, "crop_width": {"Points": [{"interpolation": 2, "co": {"Y": -1, "X": 1}}]}, "reader": {"audio_bit_rate": 0, "audio_timebase": {"num": 1, "den": 1}, "channels": 0, "height": 1080, "video_length": "2592000", "type": "QtImageReader", "file_size": "8294400", "channel_layout": 4, "acodec": "", "vcodec": "", "has_audio": false, "sample_rate": 0, "video_timebase": {"num": 1, "den": 30}, "video_stream_index": -1, "has_video": true, "has_single_image": true, "fps": {"num": 30, "den": 1}, "interlaced_frame": false, "video_bit_rate": 0, "top_field_first": true, "duration": 86400.0, "width": 1920, "display_ratio": {"num": 16, "den": 9}, "pixel_format": -1, "pixel_ratio": {"num": 1, "den": 1}, "path": "/home/osboxes/github/ElmerFEM_Examples/20171213_FAT3_CAE/2.Thick/Pictures/case11/assets/TitleFileName-1.svg", "audio_stream_index": -1}, "alpha": {"Points": [{"interpolation": 2, "co": {"Y": 1, "X": 1}}]}, "location_x": {"Points": [{"interpolation": 2, "co": {"Y": 0, "X": 1}}]}, "channel_mapping": {"Points": [{"interpolation": 2, "co": {"Y": -1, "X": 1}}]}, "perspective_c3_y": {"Points": [{"interpolation": 2, "co": {"Y": -1, "X": 1}}]}, "shear_x": {"Points": [{"interpolation": 2, "co": {"Y": 0, "X": 1}}]}, "volume": {"Points": [{"interpolation": 2, "co": {"Y": 1, "X": 1}}]}, "position": 0, "crop_height": {"Points": [{"interpolation": 2, "co": {"Y": -1, "X": 1}}]}, "scale": 1, "perspective_c3_x": {"Points": [{"interpolation": 2, "co": {"Y": -1, "X": 1}}]}, "location_y": {"Points": [{"interpolation": 2, "co": {"Y": 0, "X": 1}}]}, "crop_y": {"Points": [{"interpolation": 2, "co": {"Y": 0, "X": 1}}]}, "waveform": false, "id": "HWA97ULJ05", "layer": 0, "image": "/home/osboxes/.openshot_qt/thumbnail/VPDFU2661U.png", "shear_y": {"Points": [{"interpolation": 2, "co": {"Y": 0, "X": 1}}]}, "end": 3.0, "scale_x": {"Points": [{"interpolation": 2, "co": {"Y": 1, "X": 1}}]}, "crop_x": {"Points": [{"interpolation": 2, "co": {"Y": 0, "X": 1}}]}, "has_video": {"Points": [{"interpolation": 2, "co": {"Y": -1, "X": 1}}]}, "rotation": {"Points": [{"interpolation": 2, "co": {"Y": 0, "X": 1}}]}, "scale_y": {"Points": [{"interpolation": 2, "co": {"Y": 1, "X": 1}}]}, "start": 0, "perspective_c1_y": {"Points": [{"interpolation": 2, "co": {"Y": -1, "X": 1}}]}, "has_audio": {"Points": [{"interpolation": 2, "co": {"Y": -1, "X": 1}}]}, "perspective_c2_y": {"Points": [{"interpolation": 2, "co": {"Y": -1, "X": 1}}]}, "gravity": 4, "perspective_c2_x": {"Points": [{"interpolation": 2, "co": {"Y": -1, "X": 1}}]}, "file_id": "VPDFU2661U", "duration": 86400.0, "time": {"Points": [{"interpolation": 2, "co": {"Y": 1, "X": 1}}]}, "channel_filter": {"Points": [{"interpolation": 2, "co": {"Y": -1, "X": 1}}]}, "display": 0, "effects": [], "anchor": 0}, {"wave_color": {"blue": {"Points": [{"interpolation": 0, "handle_type": 0, "handle_right": {"Y": 0, "X": 0.5}, "co": {"Y": 255, "X": 1}, "handle_left": {"Y": 1, "X": 0.5}}]}, "green": {"Points": [{"interpolation": 0, "handle_type": 0, "handle_right": {"Y": 0, "X": 0.5}, "co": {"Y": 123, "X": 1}, "handle_left": {"Y": 1, "X": 0.5}}]}, "alpha": {"Points": [{"interpolation": 0, "handle_type": 0, "handle_right": {"Y": 0, "X": 0.5}, "co": {"Y": 255, "X": 1}, "handle_left": {"Y": 1, "X": 0.5}}]}, "red": {"Points": [{"interpolation": 0, "handle_type": 0, "handle_right": {"Y": 0, "X": 0.5}, "co": {"Y": 0, "X": 1}, "handle_left": {"Y": 1, "X": 0.5}}]}}, "title": "TitleFileName-2.svg", "perspective_c4_x": {"Points": [{"interpolation": 2, "co": {"Y": -1, "X": 1}}]}, "perspective_c4_y": {"Points": [{"interpolation": 2, "co": {"Y": -1, "X": 1}}]}, "perspective_c1_x": {"Points": [{"interpolation": 2, "co": {"Y": -1, "X": 1}}]}, "crop_width": {"Points": [{"interpolation": 2, "co": {"Y": -1, "X": 1}}]}, "reader": {"audio_bit_rate": 0, "audio_timebase": {"num": 1, "den": 1}, "channels": 0, "height": 1080, "video_length": "2592000", "type": "QtImageReader", "file_size": "8294400", "channel_layout": 4, "acodec": "", "vcodec": "", "has_audio": false, "sample_rate": 0, "video_timebase": {"num": 1, "den": 30}, "video_stream_index": -1, "has_video": true, "has_single_image": true, "fps": {"num": 30, "den": 1}, "interlaced_frame": false, "video_bit_rate": 0, "top_field_first": true, "duration": 86400.0, "width": 1920, "display_ratio": {"num": 16, "den": 9}, "pixel_format": -1, "pixel_ratio": {"num": 1, "den": 1}, "path": "/home/osboxes/github/ElmerFEM_Examples/20171213_FAT3_CAE/2.Thick/Pictures/case11/assets/TitleFileName-2.svg", "audio_stream_index": -1}, "alpha": {"Points": [{"interpolation": 2, "co": {"Y": 1, "X": 1}}]}, "location_x": {"Points": [{"interpolation": 2, "co": {"Y": 0, "X": 1}}]}, "channel_mapping": {"Points": [{"interpolation": 2, "co": {"Y": -1, "X": 1}}]}, "perspective_c3_y": {"Points": [{"interpolation": 2, "co": {"Y": -1, "X": 1}}]}, "shear_x": {"Points": [{"interpolation": 2, "co": {"Y": 0, "X": 1}}]}, "volume": {"Points": [{"interpolation": 2, "co": {"Y": 1, "X": 1}}]}, "position": 3, "crop_height": {"Points": [{"interpolation": 2, "co": {"Y": -1, "X": 1}}]}, "scale": 1, "perspective_c3_x": {"Points": [{"interpolation": 2, "co": {"Y": -1, "X": 1}}]}, "location_y": {"Points": [{"interpolation": 2, "co": {"Y": 0, "X": 1}}]}, "crop_y": {"Points": [{"interpolation": 2, "co": {"Y": 0, "X": 1}}]}, "waveform": false, "id": "IU2K6R6VQ4", "layer": 0, "image": "/home/osboxes/.openshot_qt/thumbnail/YGCFV6ZCT4.png", "shear_y": {"Points": [{"interpolation": 2, "co": {"Y": 0, "X": 1}}]}, "end": 1.0, "scale_x": {"Points": [{"interpolation": 2, "co": {"Y": 1, "X": 1}}]}, "crop_x": {"Points": [{"interpolation": 2, "co": {"Y": 0, "X": 1}}]}, "has_video": {"Points": [{"interpolation": 2, "co": {"Y": -1, "X": 1}}]}, "rotation": {"Points": [{"interpolation": 2, "co": {"Y": 0, "X": 1}}]}, "scale_y": {"Points": [{"interpolation": 2, "co": {"Y": 1, "X": 1}}]}, "start": 0, "perspective_c1_y": {"Points": [{"interpolation": 2, "co": {"Y": -1, "X": 1}}]}, "has_audio": {"Points": [{"interpolation": 2, "co": {"Y": -1, "X": 1}}]}, "perspective_c2_y": {"Points": [{"interpolation": 2, "co": {"Y": -1, "X": 1}}]}, "gravity": 4, "perspective_c2_x": {"Points": [{"interpolation": 2, "co": {"Y": -1, "X": 1}}]}, "file_id": "YGCFV6ZCT4", "duration": 86400.0, "time": {"Points": [{"interpolation": 2, "co": {"Y": 1, "X": 1}}]}, "channel_filter": {"Points": [{"interpolation": 2, "co": {"Y": -1, "X": 1}}]}, "display": 0, "effects": [], "anchor": 0}, {"wave_color": {"blue": {"Points": [{"interpolation": 0, "handle_type": 0, "handle_right": {"Y": 0, "X": 0.5}, "co": {"Y": 255, "X": 1}, "handle_left": {"Y": 1, "X": 0.5}}]}, "green": {"Points": [{"interpolation": 0, "handle_type": 0, "handle_right": {"Y": 0, "X": 0.5}, "co": {"Y": 123, "X": 1}, "handle_left": {"Y": 1, "X": 0.5}}]}, "alpha": {"Points": [{"interpolation": 0, "handle_type": 0, "handle_right": {"Y": 0, "X": 0.5}, "co": {"Y": 255, "X": 1}, "handle_left": {"Y": 1, "X": 0.5}}]}, "red": {"Points": [{"interpolation": 0, "handle_type": 0, "handle_right": {"Y": 0, "X": 0.5}, "co": {"Y": 0, "X": 1}, "handle_left": {"Y": 1, "X": 0.5}}]}}, "title": "TitleFileName-3.svg", "perspective_c4_x": {"Points": [{"interpolation": 2, "co": {"Y": -1, "X": 1}}]}, "perspective_c4_y": {"Points": [{"interpolation": 2, "co": {"Y": -1, "X": 1}}]}, "perspective_c1_x": {"Points": [{"interpolation": 2, "co": {"Y": -1, "X": 1}}]}, "crop_width": {"Points": [{"interpolation": 2, "co": {"Y": -1, "X": 1}}]}, "reader": {"audio_bit_rate": 0, "audio_timebase": {"num": 1, "den": 1}, "channels": 0, "height": 1080, "video_length": "2592000", "type": "QtImageReader", "file_size": "8294400", "channel_layout": 4, "acodec": "", "vcodec": "", "has_audio": false, "sample_rate": 0, "video_timebase": {"num": 1, "den": 30}, "video_stream_index": -1, "has_video": true, "has_single_image": true, "fps": {"num": 30, "den": 1}, "interlaced_frame": false, "video_bit_rate": 0, "top_field_first": true, "duration": 86400.0, "width": 1920, "display_ratio": {"num": 16, "den": 9}, "pixel_format": -1, "pixel_ratio": {"num": 1, "den": 1}, "path": "/home/osboxes/.openshot_qt/assets/TitleFileName-3.svg", "audio_stream_index": -1}, "alpha": {"Points": [{"interpolation": 2, "co": {"Y": 1, "X": 1}}]}, "location_x": {"Points": [{"interpolation": 2, "co": {"Y": 0, "X": 1}}]}, "channel_mapping": {"Points": [{"interpolation": 2, "co": {"Y": -1, "X": 1}}]}, "perspective_c3_y": {"Points": [{"interpolation": 2, "co": {"Y": -1, "X": 1}}]}, "shear_x": {"Points": [{"interpolation": 2, "co": {"Y": 0, "X": 1}}]}, "volume": {"Points": [{"interpolation": 2, "co": {"Y": 1, "X": 1}}]}, "position": 4, "crop_height": {"Points": [{"interpolation": 2, "co": {"Y": -1, "X": 1}}]}, "scale": 1, "perspective_c3_x": {"Points": [{"interpolation": 2, "co": {"Y": -1, "X": 1}}]}, "location_y": {"Points": [{"interpolation": 2, "co": {"Y": 0, "X": 1}}]}, "crop_y": {"Points": [{"interpolation": 2, "co": {"Y": 0, "X": 1}}]}, "waveform": false, "id": "OBUWUR8VBF", "layer": 0, "image": "/home/osboxes/.openshot_qt/thumbnail/OY2GW8EJIO.png", "shear_y": {"Points": [{"interpolation": 2, "co": {"Y": 0, "X": 1}}]}, "end": 1.0, "scale_x": {"Points": [{"interpolation": 2, "co": {"Y": 1, "X": 1}}]}, "crop_x": {"Points": [{"interpolation": 2, "co": {"Y": 0, "X": 1}}]}, "has_video": {"Points": [{"interpolation": 2, "co": {"Y": -1, "X": 1}}]}, "rotation": {"Points": [{"interpolation": 2, "co": {"Y": 0, "X": 1}}]}, "scale_y": {"Points": [{"interpolation": 2, "co": {"Y": 1, "X": 1}}]}, "start": 0, "perspective_c1_y": {"Points": [{"interpolation": 2, "co": {"Y": -1, "X": 1}}]}, "has_audio": {"Points": [{"interpolation": 2, "co": {"Y": -1, "X": 1}}]}, "perspective_c2_y": {"Points": [{"interpolation": 2, "co": {"Y": -1, "X": 1}}]}, "gravity": 4, "perspective_c2_x": {"Points": [{"interpolation": 2, "co": {"Y": -1, "X": 1}}]}, "file_id": "OY2GW8EJIO", "duration": 86400.0, "time": {"Points": [{"interpolation": 2, "co": {"Y": 1, "X": 1}}]}, "channel_filter": {"Points": [{"interpolation": 2, "co": {"Y": -1, "X": 1}}]}, "display": 0, "effects": [], "anchor": 0}, {"wave_color": {"blue": {"Points": [{"interpolation": 0, "handle_type": 0, "handle_right": {"Y": 0, "X": 0.5}, "co": {"Y": 255, "X": 1}, "handle_left": {"Y": 1, "X": 0.5}}]}, "green": {"Points": [{"interpolation": 0, "handle_type": 0, "handle_right": {"Y": 0, "X": 0.5}, "co": {"Y": 123, "X": 1}, "handle_left": {"Y": 1, "X": 0.5}}]}, "alpha": {"Points": [{"interpolation": 0, "handle_type": 0, "handle_right": {"Y": 0, "X": 0.5}, "co": {"Y": 255, "X": 1}, "handle_left": {"Y": 1, "X": 0.5}}]}, "red": {"Points": [{"interpolation": 0, "handle_type": 0, "handle_right": {"Y": 0, "X": 0.5}, "co": {"Y": 0, "X": 1}, "handle_left": {"Y": 1, "X": 0.5}}]}}, "title": "TitleFileName-4.svg", "perspective_c4_x": {"Points": [{"interpolation": 2, "co": {"Y": -1, "X": 1}}]}, "perspective_c4_y": {"Points": [{"interpolation": 2, "co": {"Y": -1, "X": 1}}]}, "perspective_c1_x": {"Points": [{"interpolation": 2, "co": {"Y": -1, "X": 1}}]}, "crop_width": {"Points": [{"interpolation": 2, "co": {"Y": -1, "X": 1}}]}, "reader": {"audio_bit_rate": 0, "audio_timebase": {"num": 1, "den": 1}, "channels": 0, "height": 1080, "video_length": "2592000", "type": "QtImageReader", "file_size": "8294400", "channel_layout": 4, "acodec": "", "vcodec": "", "has_audio": false, "sample_rate": 0, "video_timebase": {"num": 1, "den": 30}, "video_stream_index": -1, "has_video": true, "has_single_image": true, "fps": {"num": 30, "den": 1}, "interlaced_frame": false, "video_bit_rate": 0, "top_field_first": true, "duration": 86400.0, "width": 1920, "display_ratio": {"num": 16, "den": 9}, "pixel_format": -1, "pixel_ratio": {"num": 1, "den": 1}, "path": "/home/osboxes/.openshot_qt/assets/TitleFileName-4.svg", "audio_stream_index": -1}, "alpha": {"Points": [{"interpolation": 2, "co": {"Y": 1, "X": 1}}]}, "location_x": {"Points": [{"interpolation": 2, "co": {"Y": 0, "X": 1}}]}, "channel_mapping": {"Points": [{"interpolation": 2, "co": {"Y": -1, "X": 1}}]}, "perspective_c3_y": {"Points": [{"interpolation": 2, "co": {"Y": -1, "X": 1}}]}, "shear_x": {"Points": [{"interpolation": 2, "co": {"Y": 0, "X": 1}}]}, "volume": {"Points": [{"interpolation": 2, "co": {"Y": 1, "X": 1}}]}, "position": 5, "crop_height": {"Points": [{"interpolation": 2, "co": {"Y": -1, "X": 1}}]}, "scale": 1, "perspective_c3_x": {"Points": [{"interpolation": 2, "co": {"Y": -1, "X": 1}}]}, "location_y": {"Points": [{"interpolation": 2, "co": {"Y": 0, "X": 1}}]}, "crop_y": {"Points": [{"interpolation": 2, "co": {"Y": 0, "X": 1}}]}, "waveform": false, "id": "1FXNWXB1VY", "layer": 0, "image": "/home/osboxes/.openshot_qt/thumbnail/YL0ZD4DMKB.png", "shear_y": {"Points": [{"interpolation": 2, "co": {"Y": 0, "X": 1}}]}, "end": 1.0, "scale_x": {"Points": [{"interpolation": 2, "co": {"Y": 1, "X": 1}}]}, "crop_x": {"Points": [{"interpolation": 2, "co": {"Y": 0, "X": 1}}]}, "has_video": {"Points": [{"interpolation": 2, "co": {"Y": -1, "X": 1}}]}, "rotation": {"Points": [{"interpolation": 2, "co": {"Y": 0, "X": 1}}]}, "scale_y": {"Points": [{"interpolation": 2, "co": {"Y": 1, "X": 1}}]}, "start": 0, "perspective_c1_y": {"Points": [{"interpolation": 2, "co": {"Y": -1, "X": 1}}]}, "has_audio": {"Points": [{"interpolation": 2, "co": {"Y": -1, "X": 1}}]}, "perspective_c2_y": {"Points": [{"interpolation": 2, "co": {"Y": -1, "X": 1}}]}, "gravity": 4, "perspective_c2_x": {"Points": [{"interpolation": 2, "co": {"Y": -1, "X": 1}}]}, "file_id": "YL0ZD4DMKB", "duration": 86400.0, "time": {"Points": [{"interpolation": 2, "co": {"Y": 1, "X": 1}}]}, "channel_filter": {"Points": [{"interpolation": 2, "co": {"Y": -1, "X": 1}}]}, "display": 0, "effects": [], "anchor": 0}]}, {"type": "update", "key": ["clips", {"id": "LIVODCRVLS"}], "partial": false, "value": {"position": 6, "end": 12, "id": "LIVODCRVLS", "layer": 0, "start": 0, "image": "/home/osboxes/.openshot_qt/thumbnail/PF2G64VX1K.png"}, "old_values": {"reader": {"audio_bit_rate": 0, "audio_timebase": {"num": 1, "den": 1}, "channels": 0, "height": 792, "video_length": "120", "type": "FFmpegReader", "file_size": "410581362", "channel_layout": 4, "acodec": "", "vcodec": "rawvideo", "has_audio": false, "sample_rate": 0, "video_timebase": {"num": 1, "den": 10}, "video_stream_index": 0, "has_video": true, "has_single_image": false, "fps": {"num": 10, "den": 1}, "interlaced_frame": false, "video_bit_rate": 273720908, "top_field_first": true, "duration": 12.0, "width": 1440, "display_ratio": {"num": 20, "den": 11}, "pixel_format": 3, "pixel_ratio": {"num": 1, "den": 1}, "path": "/home/osboxes/github/ElmerFEM_Examples/20171213_FAT3_CAE/2.Thick/Pictures/case11_01.avi", "audio_stream_index": -1}, "has_audio": {"Points": [{"interpolation": 2, "co": {"Y": -1, "X": 1}}]}, "perspective_c4_x": {"Points": [{"interpolation": 2, "co": {"Y": -1, "X": 1}}]}, "perspective_c1_x": {"Points": [{"interpolation": 2, "co": {"Y": -1, "X": 1}}]}, "crop_width": {"Points": [{"interpolation": 2, "co": {"Y": -1, "X": 1}}]}, "volume": {"Points": [{"interpolation": 2, "co": {"Y": 1, "X": 1}}]}, "location_x": {"Points": [{"interpolation": 2, "co": {"Y": 0, "X": 1}}]}, "channel_mapping": {"Points": [{"interpolation": 2, "co": {"Y": -1, "X": 1}}]}, "perspective_c3_y": {"Points": [{"interpolation": 2, "co": {"Y": -1, "X": 1}}]}, "crop_x": {"Points": [{"interpolation": 2, "co": {"Y": 0, "X": 1}}]}, "position": 16.38, "crop_height": {"Points": [{"interpolation": 2, "co": {"Y": -1, "X": 1}}]}, "title": "case11_01.avi", "perspective_c3_x": {"Points": [{"interpolation": 2, "co": {"Y": -1, "X": 1}}]}, "scale": 1, "anchor": 0, "file_id": "PF2G64VX1K", "location_y": {"Points": [{"interpolation": 2, "co": {"Y": 0, "X": 1}}]}, "crop_y": {"Points": [{"interpolation": 2, "co": {"Y": 0, "X": 1}}]}, "perspective_c4_y": {"Points": [{"interpolation": 2, "co": {"Y": -1, "X": 1}}]}, "id": "LIVODCRVLS", "layer": 0, "image": "/home/osboxes/.openshot_qt/thumbnail/PF2G64VX1K.png", "shear_y": {"Points": [{"interpolation": 2, "co": {"Y": 0, "X": 1}}]}, "end": 12.0, "scale_x": {"Points": [{"interpolation": 2, "co": {"Y": 1, "X": 1}}]}, "shear_x": {"Points": [{"interpolation": 2, "co": {"Y": 0, "X": 1}}]}, "has_video": {"Points": [{"interpolation": 2, "co": {"Y": -1, "X": 1}}]}, "rotation": {"Points": [{"interpolation": 2, "co": {"Y": 0, "X": 1}}]}, "scale_y": {"Points": [{"interpolation": 2, "co": {"Y": 1, "X": 1}}]}, "start": 0, "perspective_c1_y": {"Points": [{"interpolation": 2, "co": {"Y": -1, "X": 1}}]}, "alpha": {"Points": [{"interpolation": 2, "co": {"Y": 1, "X": 1}}]}, "perspective_c2_y": {"Points": [{"interpolation": 2, "co": {"Y": -1, "X": 1}}]}, "gravity": 4, "perspective_c2_x": {"Points": [{"interpolation": 2, "co": {"Y": -1, "X": 1}}]}, "waveform": false, "duration": 12.0, "time": {"Points": [{"interpolation": 2, "co": {"Y": 1, "X": 1}}]}, "channel_filter": {"Points": [{"interpolation": 2, "co": {"Y": -1, "X": 1}}]}, "display": 0, "effects": [], "wave_color": {"blue": {"Points": [{"interpolation": 0, "handle_type": 0, "handle_right": {"Y": 0, "X": 0.5}, "co": {"Y": 255, "X": 1}, "handle_left": {"Y": 1, "X": 0.5}}]}, "green": {"Points": [{"interpolation": 0, "handle_type": 0, "handle_right": {"Y": 0, "X": 0.5}, "co": {"Y": 123, "X": 1}, "handle_left": {"Y": 1, "X": 0.5}}]}, "alpha": {"Points": [{"interpolation": 0, "handle_type": 0, "handle_right": {"Y": 0, "X": 0.5}, "co": {"Y": 255, "X": 1}, "handle_left": {"Y": 1, "X": 0.5}}]}, "red": {"Points": [{"interpolation": 0, "handle_type": 0, "handle_right": {"Y": 0, "X": 0.5}, "co": {"Y": 0, "X": 1}, "handle_left": {"Y": 1, "X": 0.5}}]}}}}, {"type": "update", "key": ["scale"], "partial": false, "value": 6, "old_values": 7}, {"type": "update", "key": ["scale"], "partial": false, "value": 5, "old_values": 6}, {"type": "update", "key": ["scale"], "partial": false, "value": 4, "old_values": 5}, {"type": "update", "key": ["scale"], "partial": false, "value": 3, "old_values": 4}, {"type": "update", "key": ["scale"], "partial": false, "value": 2, "old_values": 3}, {"type": "update", "key": ["scale"], "partial": false, "value": 1, "old_values": 2}]}, "channel_layout": 3, "scale": 1, "sample_rate": 44100, "id": "T0", "progress": [], "settings": {}, "profile": "HDV 720 24p", "width": 1280, "export_path": "", "fps": {"num": 24, "den": 1}, "markers": [], "playhead_position": 0, "duration": 300, "effects": [], "files": [{"audio_bit_rate": 0, "audio_timebase": {"num": 1, "den": 1}, "duration": 12, "channel_layout": 4, "height": 792, "video_length": "120", "file_size": "410581362", "media_type": "video", "audio_stream_index": -1, "acodec": "", "vcodec": "rawvideo", "has_audio": false, "sample_rate": 0, "video_timebase": {"num": 1, "den": 10}, "video_stream_index": 0, "id": "PF2G64VX1K", "has_video": true, "width": 1440, "fps": {"num": 10, "den": 1}, "interlaced_frame": false, "video_bit_rate": 273720908, "top_field_first": true, "channels": 0, "has_single_image": false, "display_ratio": {"num": 20, "den": 11}, "pixel_format": 3, "type": "FFmpegReader", "path": "../case11_01.avi", "pixel_ratio": {"num": 1, "den": 1}}, {"audio_bit_rate": 0, "audio_timebase": {"num": 1, "den": 1}, "duration": 86400, "channel_layout": 4, "height": 1080, "video_length": "2592000", "file_size": "8294400", "media_type": "image", "audio_stream_index": -1, "acodec": "", "vcodec": "", "has_audio": false, "sample_rate": 0, "video_timebase": {"num": 1, "den": 30}, "video_stream_index": -1, "id": "VPDFU2661U", "has_video": true, "width": 1920, "fps": {"num": 30, "den": 1}, "interlaced_frame": false, "video_bit_rate": 0, "top_field_first": true, "channels": 0, "has_single_image": true, "display_ratio": {"num": 16, "den": 9}, "pixel_format": -1, "type": "QtImageReader", "path": "assets/TitleFileName-1.svg", "pixel_ratio": {"num": 1, "den": 1}}, {"audio_bit_rate": 0, "audio_timebase": {"num": 1, "den": 1}, "duration": 86400, "channel_layout": 4, "height": 1080, "video_length": "2592000", "file_size": "8294400", "media_type": "image", "audio_stream_index": -1, "acodec": "", "vcodec": "", "has_audio": false, "sample_rate": 0, "video_timebase": {"num": 1, "den": 30}, "video_stream_index": -1, "id": "YGCFV6ZCT4", "has_video": true, "width": 1920, "fps": {"num": 30, "den": 1}, "interlaced_frame": false, "video_bit_rate": 0, "top_field_first": true, "channels": 0, "has_single_image": true, "display_ratio": {"num": 16, "den": 9}, "pixel_format": -1, "type": "QtImageReader", "path": "assets/TitleFileName-2.svg", "pixel_ratio": {"num": 1, "den": 1}}, {"audio_bit_rate": 0, "audio_timebase": {"num": 1, "den": 1}, "duration": 86400, "channel_layout": 4, "height": 1080, "video_length": "2592000", "file_size": "8294400", "media_type": "image", "audio_stream_index": -1, "acodec": "", "vcodec": "", "has_audio": false, "sample_rate": 0, "video_timebase": {"num": 1, "den": 30}, "video_stream_index": -1, "id": "OY2GW8EJIO", "has_video": true, "width": 1920, "fps": {"num": 30, "den": 1}, "interlaced_frame": false, "video_bit_rate": 0, "top_field_first": true, "channels": 0, "has_single_image": true, "display_ratio": {"num": 16, "den": 9}, "pixel_format": -1, "type": "QtImageReader", "path": "assets/TitleFileName-3.svg", "pixel_ratio": {"num": 1, "den": 1}}, {"audio_bit_rate": 0, "audio_timebase": {"num": 1, "den": 1}, "duration": 86400, "channel_layout": 4, "height": 1080, "video_length": "2592000", "file_size": "8294400", "media_type": "image", "audio_stream_index": -1, "acodec": "", "vcodec": "", "has_audio": false, "sample_rate": 0, "video_timebase": {"num": 1, "den": 30}, "video_stream_index": -1, "id": "YL0ZD4DMKB", "has_video": true, "width": 1920, "fps": {"num": 30, "den": 1}, "interlaced_frame": false, "video_bit_rate": 0, "top_field_first": true, "channels": 0, "has_single_image": true, "display_ratio": {"num": 16, "den": 9}, "pixel_format": -1, "type": "QtImageReader", "path": "assets/TitleFileName-4.svg", "pixel_ratio": {"num": 1, "den": 1}}], "layers": [{"number": 0, "lock": false, "id": "L0", "y": 0, "label": ""}]}